<svg width="96" height="96" viewBox="0 0 96 96" fill="none" xmlns="http://www.w3.org/2000/svg">
<path d="M42 24.0005C37.2261 24.0005 32.6477 25.8969 29.2721 29.2726C25.8964 32.6482 24 37.2266 24 42.0005C24 46.7744 25.8964 51.3527 29.2721 54.7284C32.6477 58.104 37.2261 60.0005 42 60.0005C46.7739 60.0005 51.3523 58.104 54.7279 54.7284C58.1036 51.3527 60 46.7744 60 42.0005C60 37.2266 58.1036 32.6482 54.7279 29.2726C51.3523 25.8969 46.7739 24.0005 42 24.0005ZM18 42.0005C18.0005 38.1811 18.9127 34.4169 20.6605 31.0209C22.4084 27.6249 24.9415 24.6951 28.0494 22.4749C31.1573 20.2548 34.7502 18.8085 38.5295 18.2562C42.3087 17.7039 46.1653 18.0615 49.7785 19.2994C53.3918 20.5373 56.6574 22.6197 59.304 25.3735C61.9506 28.1273 63.9018 31.473 64.9953 35.1325C66.0888 38.792 66.2932 42.6597 65.5913 46.4141C64.8895 50.1685 63.3017 53.7011 60.96 56.7185L77.121 72.8795C77.6675 73.4453 77.9699 74.2031 77.963 74.9897C77.9562 75.7763 77.6407 76.5287 77.0844 77.0849C76.5282 77.6411 75.7758 77.9567 74.9892 77.9635C74.2026 77.9703 73.4448 77.6679 72.879 77.1215L56.718 60.9605C53.1704 63.7148 48.9211 65.4183 44.4533 65.8774C39.9855 66.3365 35.4786 65.5328 31.4449 63.5575C27.4113 61.5823 24.0129 58.5148 21.6361 54.7039C19.2593 50.8931 17.9995 46.4918 18 42.0005Z" fill="#1F37F6"/>
</svg>
