<svg width="73" height="72" viewBox="0 0 73 72" fill="none" xmlns="http://www.w3.org/2000/svg">
<path d="M36.5 42C35.7044 42 34.9413 41.6839 34.3787 41.1213C33.8161 40.5587 33.5 39.7956 33.5 39V30C33.5 29.2044 33.8161 28.4413 34.3787 27.8787C34.9413 27.3161 35.7044 27 36.5 27C37.2956 27 38.0587 27.3161 38.6213 27.8787C39.1839 28.4413 39.5 29.2044 39.5 30V39C39.5 39.7956 39.1839 40.5587 38.6213 41.1213C38.0587 41.6839 37.2956 42 36.5 42ZM32 49.5C32 48.3065 32.4741 47.1619 33.318 46.318C34.1619 45.4741 35.3065 45 36.5 45C37.6935 45 38.8381 45.4741 39.682 46.318C40.5259 47.1619 41 48.3065 41 49.5C41 50.6935 40.5259 51.8381 39.682 52.682C38.8381 53.5259 37.6935 54 36.5 54C35.3065 54 34.1619 53.5259 33.318 52.682C32.4741 51.8381 32 50.6935 32 49.5Z" fill="#536EFA"/>
<path d="M31.1903 9.64766C33.4403 5.37266 39.5603 5.37266 41.8103 9.64766L66.8393 57.2037C68.9423 61.1997 66.0503 65.9997 61.5293 65.9997H11.4713C6.95629 65.9997 4.06129 61.1997 6.16129 57.2067L31.1903 9.64766ZM61.5323 59.9997L36.5003 12.4407L11.4683 59.9997H61.5323V59.9997Z" fill="#536EFA"/>
</svg>
